<svg width="160" height="57" viewBox="0 0 160 57" fill="none" xmlns="http://www.w3.org/2000/svg">
<path fill-rule="evenodd" clip-rule="evenodd" d="M69.5659 21.7456C65.9048 21.7456 62.9966 24.5836 62.9966 28.3151C62.9966 31.9412 65.7821 34.8844 69.5659 34.8844C72.1761 34.8844 74.2961 33.4303 75.3995 31.293L73.6829 30.382C72.947 31.9238 71.528 33.0099 69.5486 33.0099C66.9032 33.0099 64.9061 30.9076 64.9061 28.3151C64.9061 25.6872 66.9032 23.5849 69.5659 23.5849C71.3705 23.5849 72.7719 24.5309 73.5602 26.0024L75.2244 24.969C74.0856 23.0418 71.9837 21.7456 69.5659 21.7456ZM81.051 25.95H79.5619V27.6316H81.051V31.1356C81.051 33.8682 81.857 34.7092 84.5196 34.7092H84.8002V32.9399C83.1883 32.9399 82.9431 32.6945 82.9431 31.1179V27.6316H84.8002V25.95H82.9431V22.8494H81.051V25.95ZM89.2934 34.2536L85.667 25.95H87.6816L90.2391 32.0289L92.6569 25.95H94.6364L89.3458 38.756H87.4188L89.2934 34.2536ZM102.897 23.6044C105.524 23.6044 107.556 25.7414 107.556 28.3342C107.556 30.9268 105.524 33.0464 102.897 33.0464C100.286 33.0464 98.2541 30.9268 98.2541 28.3342C98.2541 25.7414 100.286 23.6044 102.897 23.6044ZM102.897 21.7649C99.2701 21.7649 96.3446 24.7078 96.3446 28.3342C96.3446 31.9606 99.2701 34.9036 102.897 34.9036C106.54 34.9036 109.466 31.9606 109.466 28.3342C109.466 24.7078 106.54 21.7649 102.897 21.7649ZM110.316 31.067V25.9691H112.226V30.9095C112.226 32.346 112.927 33.2569 114.345 33.2569C115.589 33.2569 116.553 32.3109 116.553 30.7868V25.9691H118.427V34.7284H116.57V33.5895C115.975 34.3954 115.029 34.9035 113.907 34.9035C111.595 34.9035 110.316 33.4671 110.316 31.067ZM120.75 25.9691H119.261V27.651H120.75V31.1547C120.75 33.8873 121.556 34.7283 124.218 34.7283H124.499V32.959C122.887 32.959 122.642 32.7139 122.642 31.137V27.651H124.499V25.9691H122.642V22.8685H120.75V25.9691ZM132.471 30.3314C132.471 28.7722 131.297 27.4932 129.703 27.4932C128.144 27.4932 126.935 28.7372 126.935 30.3314C126.935 31.9256 128.144 33.1869 129.703 33.1869C131.297 33.1869 132.471 31.9079 132.471 30.3314ZM125.078 30.3487C125.078 27.5459 127.163 25.794 129.457 25.794C130.614 25.794 131.717 26.3021 132.365 27.108V21.9401H134.222V34.7284H132.365V33.5194C131.7 34.378 130.596 34.9035 129.44 34.9035C127.215 34.9035 125.078 33.1342 125.078 30.3487ZM139.553 27.5459C141.06 27.5459 142.251 28.8073 142.251 30.3488C142.251 31.8902 141.06 33.1519 139.553 33.1519C138.047 33.1519 136.873 31.8902 136.873 30.3488C136.873 28.8073 138.047 27.5459 139.553 27.5459ZM139.553 25.794C137.031 25.794 135.016 27.7912 135.016 30.3488C135.016 32.8889 137.031 34.9035 139.553 34.9035C142.076 34.9035 144.108 32.8889 144.108 30.3488C144.108 27.7912 142.076 25.794 139.553 25.794ZM152.1 30.3488C152.1 28.8073 150.908 27.5459 149.402 27.5459C147.895 27.5459 146.722 28.8073 146.722 30.3488C146.722 31.8902 147.895 33.1519 149.402 33.1519C150.908 33.1519 152.1 31.8902 152.1 30.3488ZM144.865 30.3488C144.865 27.7912 146.879 25.794 149.402 25.794C151.925 25.794 153.957 27.7912 153.957 30.3488C153.957 32.8889 151.925 34.9035 149.402 34.9035C146.879 34.9035 144.865 32.8889 144.865 30.3488ZM156.549 25.9691H154.674V34.7283H156.566V30.3838C156.566 28.5617 157.162 27.7561 158.686 27.7561H160V25.9691H158.966C157.81 25.9691 157.004 26.4599 156.549 27.3182V25.9691ZM76.5689 34.7122H78.4609V25.9531H76.5689V34.7122ZM78.4592 24.7272H76.5708V22.8389H78.4592V24.7272Z" fill="white"/>
<path fill-rule="evenodd" clip-rule="evenodd" d="M27.106 1.03164C27.106 0.461779 27.5414 0 28.1111 0C28.6808 0 29.1161 0.461779 29.1161 1.03164V9.59389C29.1161 9.97544 28.9388 10.3078 28.6432 10.4863V12.9981C28.6432 13.283 28.396 13.5138 28.1111 13.5138C27.8263 13.5138 27.579 13.283 27.579 12.9981V10.4863C27.2834 10.3078 27.106 9.97544 27.106 9.59389V1.03164ZM28.6431 43.2239V45.7357C28.9387 45.9142 29.1161 46.2465 29.1161 46.6283V55.1905C29.1161 55.76 28.6807 56.222 28.111 56.222C27.5413 56.222 27.1061 55.76 27.1061 55.1905V46.6283C27.1061 46.2465 27.2834 45.9142 27.579 45.7357V43.2239C27.579 42.939 27.8262 42.7081 28.111 42.7081C28.3959 42.7081 28.6431 42.939 28.6431 43.2239ZM33.6543 11.3728L32.7953 13.7331C32.6978 14.0009 32.8358 14.2968 33.1036 14.3942C33.3712 14.4916 33.6672 14.3536 33.7647 14.086L34.6237 11.7255C34.9743 11.6633 35.2832 11.422 35.4136 11.0634L38.3422 3.01749C38.537 2.48217 38.2608 1.89018 37.7255 1.69535C37.1902 1.50051 36.5982 1.77653 36.4034 2.31185L33.475 10.3577C33.3444 10.7164 33.4259 11.0998 33.6543 11.3728ZM23.4269 42.4889L22.5678 44.8492C22.7962 45.1222 22.8777 45.5057 22.7473 45.8643L19.8187 53.9102C19.6239 54.4455 19.0319 54.7215 18.4966 54.5267C17.9611 54.3319 17.6851 53.7399 17.8799 53.2046L20.8085 45.1587C20.939 44.8 21.2479 44.5587 21.5984 44.4963L22.4575 42.136C22.5549 41.8683 22.8509 41.7304 23.1185 41.8279C23.3863 41.9253 23.5243 42.2212 23.4269 42.4889ZM36.4767 12.5897L35.2208 14.765C35.0783 15.0116 35.1629 15.3271 35.4096 15.4695C35.6563 15.612 35.9718 15.5275 36.1143 15.2808L37.3702 13.1054C37.7261 13.1049 38.0722 12.9209 38.263 12.5905L42.5442 5.17542C42.8291 4.68197 42.6599 4.05098 42.1666 3.76621C41.6731 3.48128 41.0423 3.65033 40.7574 4.14378L36.4762 11.5588C36.2854 11.8894 36.2992 12.2812 36.4767 12.5897ZM21.0014 41.457L19.7454 43.6323C19.9229 43.9408 19.9366 44.3327 19.7459 44.6632L15.4648 52.0782C15.1798 52.5717 14.5489 52.7407 14.0556 52.4558C13.5621 52.171 13.3931 51.5401 13.678 51.0466L17.9591 43.6315C18.15 43.3011 18.496 43.1171 18.8521 43.1166L20.1079 40.9413C20.2503 40.6945 20.5658 40.61 20.8126 40.7525C21.0593 40.8949 21.1438 41.2103 21.0014 41.457ZM17.1773 41.9439L18.7918 40.0197C18.975 39.8015 18.9465 39.4761 18.7283 39.2931C18.5101 39.11 18.1847 39.1383 18.0016 39.3566L16.3871 41.2807C16.0363 41.2194 15.6635 41.3406 15.4182 41.6328L9.91454 48.192C9.54827 48.6283 9.60526 49.279 10.0417 49.6453C10.478 50.0116 11.1288 49.9546 11.495 49.5181L16.9987 42.9591C17.244 42.6667 17.2985 42.2786 17.1773 41.9439ZM16.8655 38.2205L14.9413 39.8351C15.0026 40.1858 14.8814 40.5586 14.5892 40.8039L8.03021 46.3076C7.59374 46.6737 6.94302 46.6168 6.57674 46.1805C6.21063 45.744 6.26746 45.0933 6.70393 44.7271L13.2631 39.2234C13.5553 38.9781 13.9436 38.9235 14.2782 39.0448L16.2023 37.4302C16.4207 37.2472 16.7459 37.2756 16.9291 37.4939C17.1122 37.7121 17.0837 38.0373 16.8655 38.2205ZM13.1055 37.3701L15.2808 36.1141C15.5276 35.9717 15.6121 35.6563 15.4696 35.4096C15.3272 35.1629 15.0118 35.0784 14.7651 35.2208L12.5898 36.4766C12.2811 36.2991 11.8894 36.2854 11.5589 36.4761L4.14386 40.7572C3.6504 41.0422 3.48136 41.6732 3.76613 42.1665C4.05106 42.6599 4.68204 42.829 5.17534 42.544L12.5905 38.2629C12.921 38.0722 13.105 37.726 13.1055 37.3701ZM14.086 33.7646L11.7257 34.6237C11.6633 34.9742 11.4219 35.2832 11.0635 35.4136L3.01759 38.3421C2.48227 38.537 1.89013 38.2608 1.69529 37.7255C1.50046 37.1902 1.77663 36.5982 2.31195 36.4033L10.3578 33.4749C10.7163 33.3444 11.0998 33.4259 11.3729 33.6543L13.7332 32.7952C14.001 32.6978 14.2969 32.8358 14.3943 33.1036C14.4917 33.3713 14.3537 33.6672 14.086 33.7646ZM10.8436 31.6795L13.3173 31.2433C13.5979 31.1938 13.7853 30.9264 13.7358 30.6458C13.6863 30.3653 13.4188 30.178 13.1382 30.2275L10.6646 30.6636C10.4353 30.3911 10.0718 30.2443 9.69612 30.3106L1.26392 31.7974C0.702811 31.8963 0.328103 32.4313 0.427112 32.9924C0.525963 33.5535 1.06112 33.9282 1.62223 33.8292L10.0543 32.3425C10.4301 32.2761 10.7214 32.0138 10.8436 31.6795ZM10.4863 28.6726C10.3078 28.9682 9.97544 29.2047 9.59389 29.2047H1.03164C0.461938 29.2047 0 28.7397 0 28.17C0 27.6003 0.461938 27.1355 1.03164 27.1355H9.59389C9.97544 27.1355 10.3078 27.3129 10.4864 27.6677H12.9983C13.283 27.6677 13.514 27.8853 13.514 28.17C13.514 28.455 13.283 28.6726 12.9983 28.6726H10.4863ZM1.26391 24.4762L9.69611 25.9631C10.0718 26.0293 10.4353 25.8824 10.6646 25.6101L13.1382 26.0462C13.4188 26.0957 13.6863 25.9084 13.7358 25.6279C13.7853 25.3473 13.5979 25.0798 13.3173 25.0303L10.8436 24.5942C10.7214 24.2597 10.4301 23.9974 10.0544 23.9312L1.62222 22.4443C1.06111 22.3455 0.52611 22.7202 0.4271 23.2811C0.32825 23.8422 0.702799 24.3774 1.26391 24.4762ZM10.3578 22.7987L2.31191 19.8703C1.77659 19.6754 1.50058 19.0834 1.69541 18.5481C1.89025 18.0126 2.48223 17.7366 3.01755 17.9315L11.0634 20.8599C11.4221 20.9904 11.6634 21.2994 11.7256 21.6499L14.0861 22.509C14.3537 22.6064 14.4917 22.9025 14.3943 23.17C14.2968 23.4378 14.0009 23.5758 13.7332 23.4784L11.3729 22.6193C11.0997 22.8477 10.7164 22.9292 10.3578 22.7987ZM4.14379 15.5163L11.5588 19.7974C11.8895 19.9883 12.2812 19.9744 12.5897 19.7969L14.765 21.0528C15.0118 21.1953 15.3272 21.1108 15.4696 20.8641C15.612 20.6173 15.5275 20.3018 15.2808 20.1594L13.1056 18.9036C13.1049 18.5475 12.9209 18.2015 12.5905 18.0106L5.17543 13.7295C4.68198 13.4447 4.05115 13.6136 3.76622 14.1071C3.48129 14.6005 3.65049 15.2315 4.14379 15.5163ZM13.2631 17.0503L6.70393 11.5465C6.26746 11.1803 6.21063 10.5295 6.57674 10.0932C6.94302 9.65676 7.59374 9.59977 8.03005 9.96604L14.5892 15.4697C14.8814 15.715 15.0026 16.0878 14.9413 16.4386L16.8655 18.0531C17.0837 18.2362 17.1122 18.5616 16.9291 18.7798C16.7459 18.998 16.4205 19.0265 16.2023 18.8433L14.2782 17.2288C13.9436 17.35 13.5553 17.2955 13.2631 17.0503ZM15.4182 14.6407C15.6635 14.933 16.0363 15.0541 16.387 14.9928L18.0015 16.917C18.1848 17.1352 18.51 17.1637 18.7282 16.9805C18.9464 16.7974 18.9749 16.4721 18.7919 16.2538L17.1773 14.3297C17.2986 13.9949 17.244 13.6069 16.9987 13.3144L11.4951 6.75546C11.1288 6.31899 10.4781 6.26201 10.0416 6.62828C9.60531 6.99455 9.54833 7.64528 9.91444 8.08159L15.4182 14.6407ZM37.37 43.1682C37.7261 43.1686 38.0722 43.3527 38.263 43.6831L42.5442 51.0983C42.8289 51.5914 42.66 52.2221 42.1671 52.507L42.1666 52.5074L42.1661 52.5077C41.6728 52.7921 41.0421 52.6231 40.7574 52.1298L36.4762 44.7147C36.2854 44.3843 36.2992 43.9924 36.4767 43.6839L35.2208 41.5087C35.0783 41.262 35.1629 40.9465 35.4096 40.804C35.6563 40.6616 35.9718 40.7461 36.1143 40.9928L37.37 43.1682ZM17.9591 12.6421C18.15 12.9725 18.496 13.1565 18.8519 13.157L20.108 15.3323C20.2503 15.5791 20.5658 15.6636 20.8125 15.5211C21.0593 15.3787 21.1438 15.0633 21.0013 14.8166L19.7454 12.6413C19.9229 12.3326 19.9367 11.9409 19.7459 11.6104L15.4648 4.19537C15.1798 3.70191 14.549 3.53286 14.0555 3.8178C13.5622 4.10257 13.393 4.73355 13.678 5.22701L17.9591 12.6421ZM34.6238 44.548C34.9742 44.6102 35.2832 44.8516 35.4137 45.2102L38.3421 53.2561C38.5369 53.7914 38.2611 54.383 37.7261 54.578L37.7256 54.5784H37.7251C37.19 54.773 36.5981 54.497 36.4035 53.9617L33.4749 45.9158C33.3444 45.5572 33.426 45.1739 33.6544 44.9007L32.7953 42.5404C32.6979 42.2728 32.8359 41.9768 33.1035 41.8794C33.3713 41.7819 33.6673 41.9199 33.7647 42.1877L34.6238 44.548ZM20.8084 11.115C20.939 11.4736 21.2479 11.7149 21.5985 11.7771L22.4575 14.1375C22.555 14.4052 22.8509 14.5432 23.1186 14.4458C23.3862 14.3484 23.5244 14.0525 23.4268 13.7847L22.5677 11.4244C22.7961 11.1512 22.8778 10.7679 22.7472 10.4093L19.8187 2.36344C19.6238 1.82812 19.0318 1.55194 18.4965 1.74694C17.9612 1.94177 17.6852 2.53376 17.88 3.06908L20.8084 11.115ZM31.6795 45.4299C32.0139 45.5522 32.2762 45.8435 32.3425 46.2193L33.8293 54.6419C33.9282 55.2027 33.5538 55.728 32.993 55.8272L32.9928 55.8191L32.9925 55.8082H32.9919C32.4311 55.9264 31.8963 55.5515 31.7974 54.9905L30.3105 46.5776C30.2443 46.2018 30.3912 45.8384 30.6636 45.6091L30.2274 43.1355C30.1779 42.8549 30.3653 42.5875 30.6458 42.5379C30.9264 42.4884 31.194 42.6758 31.2433 42.9563L31.6795 45.4299ZM30.6458 13.7357C30.9265 13.7852 31.1939 13.5978 31.2434 13.3173L31.6795 10.8437C32.0138 10.7215 32.2761 10.4302 32.3425 10.0543L33.8293 1.62213C33.9283 1.06102 33.5536 0.526023 32.9925 0.427014C32.4314 0.328164 31.8963 0.702712 31.7975 1.26382L30.3106 9.69602C30.2444 10.0718 30.3911 10.4353 30.6637 10.6645L30.2274 13.1381C30.178 13.4186 30.3654 13.6862 30.6458 13.7357ZM24.9788 42.9046C25.0283 42.6242 25.2958 42.4368 25.5763 42.4863C25.8569 42.5358 26.0441 42.8032 25.9948 43.0839L25.5585 45.5575C25.8308 45.7867 25.9778 46.1501 25.9115 46.526L24.4247 54.9582C24.3258 55.5191 23.7906 55.8938 23.2297 55.795C22.6686 55.696 22.2939 55.161 22.3929 54.5998L23.8796 46.1676C23.946 45.792 24.2083 45.5007 24.5426 45.3784L24.9788 42.9046ZM37.4939 16.929C37.7122 17.1122 38.0375 17.0835 38.2206 16.8655L46.244 7.30342C46.4272 7.08518 46.3987 6.75982 46.1805 6.57676C45.9623 6.39371 45.6369 6.42204 45.4538 6.64028L37.4304 16.2023C37.2472 16.4206 37.2757 16.7459 37.4939 16.929ZM40.0197 18.7917C39.8015 18.9749 39.4763 18.9464 39.2931 18.7282C39.11 18.5099 39.1385 18.1846 39.3566 18.0015L48.9187 9.97809C49.1369 9.79487 49.4623 9.82337 49.6453 10.0416C49.8285 10.2598 49.8 10.5852 49.5818 10.7683L40.0197 18.7917ZM40.7525 20.8125C40.895 21.0592 41.2105 21.1437 41.457 21.0012L52.2671 14.7601C52.5138 14.6177 52.5983 14.3022 52.4559 14.0555C52.3135 13.8089 51.9981 13.7242 51.7513 13.8667L40.9413 20.1079C40.6946 20.2502 40.6101 20.5657 40.7525 20.8125ZM42.4889 23.4268C42.2213 23.5243 41.9253 23.3863 41.8278 23.1185C41.7304 22.8508 41.8684 22.5549 42.1362 22.4574L53.8656 18.1883C54.1334 18.0908 54.4294 18.2288 54.5268 18.4964C54.6243 18.7642 54.4861 19.0602 54.2185 19.1577L42.4889 23.4268ZM42.4864 25.5763C42.5359 25.8569 42.8035 26.0441 43.084 25.9946L55.3766 23.827C55.6572 23.7777 55.8446 23.5101 55.7951 23.2296C55.7456 22.949 55.478 22.7617 55.1975 22.8112L42.9047 24.9787C42.6243 25.0282 42.4369 25.2958 42.4864 25.5763ZM43.2239 27.6676H55.7063C55.9911 27.6676 56.222 27.8852 56.222 28.1701C56.222 28.4551 55.9911 28.6727 55.7063 28.6727H43.2239C42.9391 28.6727 42.7082 28.4551 42.7082 28.1701C42.7082 27.8852 42.9391 27.6676 43.2239 27.6676ZM55.3766 32.4465L43.084 30.2789C42.8034 30.2294 42.5358 30.4168 42.4865 30.6974C42.437 30.9779 42.6243 31.2455 42.9048 31.2948L55.1976 33.4624C55.478 33.5119 55.7456 33.3245 55.795 33.044C55.8445 32.7636 55.6571 32.496 55.3766 32.4465ZM42.4889 32.8468L54.2185 37.116C54.4861 37.2134 54.6243 37.5095 54.5268 37.7771C54.4294 38.0448 54.1333 38.1828 53.8656 38.0854L42.1362 33.8162C41.8684 33.7188 41.7304 33.4227 41.8278 33.1552C41.9252 32.8874 42.2213 32.7494 42.4889 32.8468ZM52.2671 41.5135L41.4571 35.2724C41.2104 35.1299 40.8949 35.2145 40.7526 35.4612C40.6101 35.7079 40.6946 36.0233 40.9414 36.1657L51.7514 42.4068C51.998 42.5493 52.3134 42.4648 52.4559 42.218C52.5984 41.9715 52.5139 41.656 52.2671 41.5135ZM39.2931 37.5454C39.4762 37.3273 39.8015 37.2988 40.0198 37.4818L49.5818 45.5053C49.7999 45.6885 49.8284 46.0139 49.6453 46.2319C49.4623 46.4502 49.1369 46.4787 48.9187 46.2956L39.3566 38.272C39.1384 38.089 39.1099 37.7636 39.2931 37.5454ZM38.2206 39.4082C38.0376 39.19 37.7122 39.1615 37.494 39.3447C37.2757 39.5278 37.2472 39.8531 37.4303 40.0713L45.4539 49.6332C45.6369 49.8515 45.9623 49.88 46.1805 49.6969C46.3988 49.5139 46.4273 49.1885 46.244 48.9703L38.2206 39.4082ZM25.9116 9.74759C25.9778 10.1234 25.8309 10.4868 25.5585 10.716L25.9947 13.1897C26.0442 13.4703 25.8568 13.7377 25.5764 13.7872C25.2957 13.8368 25.0283 13.6494 24.9788 13.3689L24.5427 10.8951C24.2082 10.7729 23.9459 10.4817 23.8797 10.1059L22.3928 1.6737C22.2939 1.1126 22.6686 0.577597 23.2296 0.478587C23.7907 0.379737 24.3257 0.754445 24.4247 1.31539L25.9116 9.74759Z" fill="white"/>
</svg>
