<svg width="100" height="18" viewBox="0 0 100 18" fill="none" xmlns="http://www.w3.org/2000/svg">
<path fill-rule="evenodd" clip-rule="evenodd" d="M6.77227 0C2.99805 0 0 2.92568 0 6.77243C0 10.5106 2.87153 13.5447 6.77227 13.5447C9.46312 13.5447 11.6486 12.0457 12.7861 9.84235L11.0165 8.90322C10.2578 10.4927 8.79492 11.6123 6.75438 11.6123C4.02726 11.6123 1.9685 9.44507 1.9685 6.77243C1.9685 4.06336 4.02726 1.89614 6.77227 1.89614C8.63263 1.89614 10.0773 2.87136 10.8899 4.38827L12.6056 3.32296C11.4316 1.33624 9.26473 0 6.77227 0ZM18.6122 4.33429H17.077V6.0678H18.6122V9.68006C18.6122 12.4971 19.443 13.364 22.1878 13.364H22.4771V11.5401C20.8155 11.5401 20.5626 11.2871 20.5626 9.66185V6.0678H22.4771V4.33429H20.5626V1.13785H18.6122V4.33429ZM27.1092 12.8944L23.3708 4.3343H25.4476L28.0841 10.601L30.5766 4.3343H32.6173L27.1632 17.5359H25.1766L27.1092 12.8944ZM41.1326 1.91618C43.8413 1.91618 45.9363 4.11918 45.9363 6.79215C45.9363 9.46479 43.8413 11.6499 41.1326 11.6499C38.4417 11.6499 36.3467 9.46479 36.3467 6.79215C36.3467 4.11918 38.4417 1.91618 41.1326 1.91618ZM41.1325 0.0198642C37.394 0.0198642 34.3781 3.05368 34.3781 6.79213C34.3781 10.5306 37.394 13.5644 41.1325 13.5644C44.8888 13.5644 47.9046 10.5306 47.9046 6.79213C47.9046 3.05368 44.8888 0.0198642 41.1325 0.0198642ZM48.7815 9.60933V4.35397H50.75V9.44703C50.75 10.9278 51.4723 11.867 52.9349 11.867C54.2174 11.867 55.2105 10.8917 55.2105 9.32052V4.35397H57.1432V13.3839H55.2287V12.2098C54.6146 13.0406 53.6392 13.5644 52.4835 13.5644C50.0997 13.5644 48.7815 12.0836 48.7815 9.60933ZM59.5372 4.35401H58.002V6.08786H59.5372V9.69979C59.5372 12.5168 60.368 13.3838 63.1128 13.3838H63.4021V11.5598C61.7405 11.5598 61.4876 11.3071 61.4876 9.68157V6.08786H63.4021V4.35401H61.4876V1.15757H59.5372V4.35401ZM71.6202 8.85103C71.6202 7.2437 70.4103 5.92518 68.7669 5.92518C67.1596 5.92518 65.9134 7.2076 65.9134 8.85103C65.9134 10.4945 67.1596 11.7948 68.7669 11.7948C70.4103 11.7948 71.6202 10.4762 71.6202 8.85103ZM63.9991 8.86888C63.9991 5.97946 66.1481 4.17342 68.5137 4.17342C69.7057 4.17342 70.8436 4.69721 71.5117 5.52803V0.200473H73.4261V13.3838H71.5117V12.1375C70.8253 13.0227 69.6878 13.5643 68.4958 13.5643C66.2021 13.5643 63.9991 11.7404 63.9991 8.86888ZM78.9215 5.9795C80.4745 5.9795 81.7026 7.2798 81.7026 8.86891C81.7026 10.458 80.4745 11.7587 78.9215 11.7587C77.3684 11.7587 76.1584 10.458 76.1584 8.86891C76.1584 7.2798 77.3684 5.9795 78.9215 5.9795ZM78.9215 4.17347C76.3211 4.17347 74.2443 6.23239 74.2443 8.86893C74.2443 11.4876 76.3211 13.5644 78.9215 13.5644C81.5221 13.5644 83.617 11.4876 83.617 8.86893C83.617 6.23239 81.5221 4.17347 78.9215 4.17347ZM91.8556 8.86891C91.8556 7.2798 90.6275 5.9795 89.0745 5.9795C87.5215 5.9795 86.3115 7.2798 86.3115 8.86891C86.3115 10.458 87.5215 11.7587 89.0745 11.7587C90.6275 11.7587 91.8556 10.458 91.8556 8.86891ZM84.3971 8.86893C84.3971 6.23239 86.4739 4.17347 89.0744 4.17347C91.675 4.17347 93.7698 6.23239 93.7698 8.86893C93.7698 11.4876 91.675 13.5644 89.0744 13.5644C86.4739 13.5644 84.3971 11.4876 84.3971 8.86893ZM96.4421 4.35397H94.5098V13.3837H96.4603V8.90503C96.4603 7.02661 97.0745 6.19612 98.6454 6.19612H100V4.35397H98.9345C97.7427 4.35397 96.9119 4.85988 96.4421 5.74469V4.35397ZM13.9916 13.3672H15.9421V4.33742H13.9916V13.3672ZM15.9402 3.07373H13.9935V1.12706H15.9402V3.07373Z" fill="white"/>
</svg>
