<svg fill="none" xmlns="http://www.w3.org/2000/svg" viewBox="0 0 57 57">
    <path fill-rule="evenodd" clip-rule="evenodd" d="M27.106 1.032c0-.57.435-1.032 1.005-1.032.57 0 1.005.462 1.005 1.032v8.562c0 .381-.177.714-.473.892v2.512a.53.53 0 01-.532.516.53.53 0 01-.532-.516v-2.512c-.296-.178-.473-.51-.473-.892V1.032zm1.537 42.192v2.512c.296.178.473.51.473.892v8.563c0 .57-.435 1.031-1.005 1.031-.57 0-1.005-.462-1.005-1.031v-8.563c0-.381.177-.714.473-.892v-2.512a.53.53 0 01.532-.516.53.53 0 01.532.516zm5.011-31.851l-.859 2.36a.516.516 0 10.97.353l.859-2.36c.35-.063.66-.304.79-.663l2.928-8.046a1.032 1.032 0 00-1.939-.705l-2.928 8.046c-.13.358-.05.742.18 1.015zM23.427 42.489l-.86 2.36c.23.273.31.657.18 1.015L19.82 53.91a1.031 1.031 0 11-1.94-.705l2.93-8.046c.13-.359.439-.6.79-.663l.858-2.36a.516.516 0 11.97.353zm13.05-29.9l-1.256 2.176a.516.516 0 10.893.516l1.256-2.176c.356 0 .702-.184.893-.515l4.281-7.415a1.032 1.032 0 00-1.787-1.031l-4.28 7.415a1.03 1.03 0 000 1.03zM21 41.458l-1.256 2.175c.178.309.192.7 0 1.031l-4.28 7.415a1.032 1.032 0 11-1.787-1.031l4.281-7.415c.191-.33.537-.515.893-.515l1.256-2.176a.516.516 0 01.893.516zm-3.824.487l1.615-1.924a.516.516 0 10-.79-.663l-1.615 1.924a1.03 1.03 0 00-.969.352l-5.503 6.559a1.032 1.032 0 101.58 1.326l5.504-6.559c.245-.292.3-.68.178-1.015zm-.311-3.724l-1.925 1.615c.062.35-.06.724-.352.969L8.03 46.308a1.032 1.032 0 01-1.326-1.58l6.56-5.505c.291-.245.68-.3 1.014-.178l1.924-1.615a.516.516 0 01.663.79zm-3.76-.85l2.175-1.256a.516.516 0 10-.516-.893l-2.175 1.256a1.03 1.03 0 00-1.031 0l-7.415 4.28a1.032 1.032 0 001.031 1.787l7.416-4.281c.33-.19.514-.537.514-.893zm.98-3.605l-2.36.859a1.03 1.03 0 01-.663.79l-8.045 2.928a1.032 1.032 0 01-.706-1.939l8.046-2.928a1.03 1.03 0 011.015.18l2.36-.86a.516.516 0 11.353.97zm-3.242-2.086l2.473-.436a.516.516 0 10-.179-1.016l-2.473.437a1.03 1.03 0 00-.969-.354l-8.432 1.487a1.031 1.031 0 10.358 2.032l8.432-1.487a1.03 1.03 0 00.79-.663zm-.358-3.006c-.178.295-.51.532-.892.532H1.032a1.034 1.034 0 010-2.07h8.562c.381 0 .714.178.892.533h2.512c.285 0 .516.217.516.502a.505.505 0 01-.516.502h-2.512zm-9.222-4.197l8.432 1.487c.376.066.74-.08.969-.353l2.473.436a.516.516 0 00.18-1.016l-2.474-.436a1.03 1.03 0 00-.79-.663l-8.432-1.487a1.032 1.032 0 00-.358 2.032zm9.094-1.677L2.312 19.87a1.032 1.032 0 01.706-1.939l8.045 2.929c.36.13.6.44.663.79l2.36.859a.516.516 0 01-.353.97l-2.36-.86a1.03 1.03 0 01-1.015.18zm-6.214-7.283l7.415 4.281c.33.191.722.177 1.03 0l2.176 1.256a.516.516 0 10.516-.894l-2.175-1.255c-.001-.357-.185-.703-.515-.893l-7.416-4.282a1.032 1.032 0 00-1.031 1.787zm9.12 1.534l-6.56-5.504a1.032 1.032 0 011.326-1.58l6.56 5.504c.291.245.413.618.351.969l1.925 1.614a.516.516 0 11-.664.79l-1.924-1.614a1.03 1.03 0 01-1.015-.179zm2.154-2.41c.246.293.618.414.969.353l1.614 1.924a.516.516 0 00.79-.663l-1.614-1.924A1.03 1.03 0 0017 13.315l-5.504-6.56a1.032 1.032 0 00-1.58 1.327l5.503 6.559zM37.37 43.169c.356 0 .702.185.893.515l4.281 7.415a1.032 1.032 0 01-1.787 1.031l-4.28-7.414a1.03 1.03 0 010-1.031l-1.256-2.175a.516.516 0 11.893-.516l1.256 2.175zM17.96 12.642c.19.33.536.515.892.515l1.256 2.175a.516.516 0 10.893-.515l-1.256-2.176a1.03 1.03 0 000-1.03l-4.28-7.416a1.032 1.032 0 10-1.787 1.032l4.281 7.415zm16.664 31.906c.35.062.66.304.79.662l2.928 8.046a1.031 1.031 0 11-1.939.706l-2.928-8.046a1.03 1.03 0 01.18-1.015l-.86-2.36a.516.516 0 01.97-.353l.859 2.36zM20.808 11.115c.131.358.44.6.79.662l.86 2.36a.516.516 0 00.969-.352l-.86-2.36a1.03 1.03 0 00.18-1.016L19.82 2.363a1.032 1.032 0 10-1.939.706l2.928 8.046zM31.68 45.43c.334.122.596.413.663.79l1.486 8.422a1.022 1.022 0 01-.836 1.185v-.019h-.001a1.005 1.005 0 01-1.195-.817l-1.486-8.413a1.03 1.03 0 01.353-.969l-.437-2.474a.516.516 0 011.016-.179l.437 2.474zm-1.034-31.694c.28.05.548-.138.597-.419l.437-2.473a1.03 1.03 0 00.663-.79l1.486-8.432a1.032 1.032 0 10-2.032-.358l-1.486 8.432c-.067.376.08.74.353.968l-.437 2.474c-.049.28.138.548.419.598zm-5.667 29.168a.516.516 0 011.016.18l-.437 2.473c.273.23.42.593.354.969l-1.487 8.432a1.032 1.032 0 01-2.032-.358l1.487-8.433c.066-.375.328-.666.663-.789l.436-2.474zM37.494 16.93a.516.516 0 00.727-.063l8.023-9.563a.516.516 0 10-.79-.663l-8.024 9.562a.516.516 0 00.064.727zm2.526 1.863a.516.516 0 11-.663-.79l9.562-8.024a.516.516 0 11.663.79l-9.562 8.024zm.732 2.02a.516.516 0 00.705.19l10.81-6.242a.516.516 0 00-.516-.893l-10.81 6.241a.516.516 0 00-.189.705zm1.737 2.615a.516.516 0 01-.353-.97l11.73-4.269a.516.516 0 01.352.97l-11.73 4.269zm-.003 2.15c.05.28.318.467.598.418l12.293-2.168a.516.516 0 10-.18-1.016L42.905 24.98a.516.516 0 00-.419.597zm.738 2.09h12.482c.285 0 .516.218.516.503a.505.505 0 01-.516.503H43.224a.505.505 0 01-.516-.503c0-.285.231-.502.516-.502zm12.153 4.78l-12.293-2.168a.516.516 0 10-.18 1.016l12.294 2.167a.516.516 0 10.179-1.016zm-12.888.4l11.73 4.27a.516.516 0 01-.353.969l-11.73-4.27a.516.516 0 11.353-.97zm9.778 8.666l-10.81-6.24a.516.516 0 10-.516.893l10.81 6.24a.516.516 0 10.516-.893zm-12.974-3.968a.516.516 0 01.727-.063l9.562 8.023a.516.516 0 01-.663.79l-9.562-8.023a.516.516 0 01-.064-.727zm-1.072 1.863a.516.516 0 10-.79.663l8.023 9.562a.516.516 0 10.79-.663l-8.023-9.562zM25.91 9.748c.067.376-.08.739-.353.968l.437 2.474a.516.516 0 01-1.016.179l-.436-2.474a1.03 1.03 0 01-.663-.789l-1.487-8.432a1.032 1.032 0 012.032-.358l1.487 8.432z" fill="#fff"/>
</svg>
